<?xml version="1.0" encoding="UTF-8" standalone="no"?><!DOCTYPE svg PUBLIC "-//W3C//DTD SVG 1.1//EN" "http://www.w3.org/Graphics/SVG/1.1/DTD/svg11.dtd"><svg width="100%" height="100%" viewBox="0 0 100 100" version="1.1" xmlns="http://www.w3.org/2000/svg" xmlns:xlink="http://www.w3.org/1999/xlink" xml:space="preserve" xmlns:serif="http://www.serif.com/" style="fill-rule:evenodd;clip-rule:evenodd;stroke-linejoin:round;stroke-miterlimit:2;"><g id="Layer-1" serif:id="Layer 1"><path d="M56.454,70.894l1.693,1.118c1.484,5.177 2.382,12.625 -1.767,18.704c-0.887,1.3 -1.943,2.495 -3.143,3.565c7.159,-1.655 14.404,-6.42 17.605,-12.087c3.367,-5.97 2.776,-12.102 2.125,-15.225l0.762,-1.679c11.029,-6.204 17.613,-16.333 17.613,-27.095c-0,-18.251 -18.546,-33.1 -41.342,-33.1c-22.796,-0 -41.342,14.849 -41.342,33.1c-0,18.251 18.546,33.099 41.342,33.099c2.154,0 4.326,-0.134 6.454,-0.4m-8.392,27.13c-0.364,0 -0.726,-0.009 -1.086,-0.026l-0.565,-2.979c3.082,-1.396 5.638,-3.491 7.393,-6.061c3.154,-4.623 2.757,-10.397 1.681,-14.817c-1.818,0.182 -3.657,0.273 -5.485,0.273c-24.516,0 -44.461,-16.248 -44.461,-36.219c-0,-19.971 19.945,-36.219 44.461,-36.219c24.516,0 44.461,16.248 44.461,36.219c-0,11.581 -6.793,22.443 -18.233,29.254c0.62,3.777 0.827,10.079 -2.67,16.278c-4.552,8.059 -15.793,14.297 -25.496,14.297" style="fill:#1d1d1b;fill-rule:nonzero;"/><path d="M49.949,17.426c-0,2.229 -0.046,4.413 -0.093,6.781l-3.622,-0l-0.094,-4.923c-2.229,-1.347 -5.062,-1.951 -7.616,-1.951c-8.36,-0 -12.866,6.177 -12.866,13.237c-0,6.595 4.088,12.772 12.958,12.772c3.345,-0 5.946,-0.929 8.407,-3.297l-0,-6.662l-10.125,-0l-0,-3.716l13.701,-0l-0,11.957c-3.019,3.715 -7.106,5.527 -12.029,5.527c-11.564,-0 -16.906,-7.803 -16.906,-16.581c-0.046,-9.661 6.317,-16.998 16.86,-16.998c4.273,-0 8.034,1.067 11.425,3.854" style="fill:#1d1d1b;fill-rule:nonzero;"/><path d="M68.237,39.653c0,-3.948 -2.834,-6.27 -6.967,-6.27l-10.218,-0l0,12.865l10.171,-0c4.83,-0 6.967,-2.647 7.014,-6.595m-12.587,18.764l0,3.761l-12.633,-0l0,-3.761l3.994,-0l0,-25.034l-4.04,-0l0,-3.716l18.299,-0c6.317,-0 10.96,3.344 11.007,9.846c0,6.224 -4.087,9.8 -10.218,10.125l7.153,8.779l4.412,-0l0,3.761l-9.01,-0l0,-3.436l-7.106,-9.011l-6.456,-0l0,8.686l4.598,-0Z" style="fill:#1d1d1b;fill-rule:nonzero;"/></g></svg>